<svg xmlns="http://www.w3.org/2000/svg" width="120" height="120" viewBox="0 0 120 120">
  <!-- 6x6 dot grid, top-right corner decoration -->
  <g fill="currentColor" opacity="0.25">
    <circle cx="10" cy="10" r="2"/><circle cx="30" cy="10" r="2"/><circle cx="50" cy="10" r="2"/><circle cx="70" cy="10" r="2"/><circle cx="90" cy="10" r="2"/><circle cx="110" cy="10" r="2"/>
    <circle cx="10" cy="30" r="2"/><circle cx="30" cy="30" r="2"/><circle cx="50" cy="30" r="2"/><circle cx="70" cy="30" r="2"/><circle cx="90" cy="30" r="2"/><circle cx="110" cy="30" r="2"/>
    <circle cx="10" cy="50" r="2"/><circle cx="30" cy="50" r="2"/><circle cx="50" cy="50" r="2"/><circle cx="70" cy="50" r="2"/><circle cx="90" cy="50" r="2"/><circle cx="110" cy="50" r="2"/>
    <circle cx="10" cy="70" r="2"/><circle cx="30" cy="70" r="2"/><circle cx="50" cy="70" r="2"/><circle cx="70" cy="70" r="2"/><circle cx="90" cy="70" r="2"/><circle cx="110" cy="70" r="2"/>
    <circle cx="10" cy="90" r="2"/><circle cx="30" cy="90" r="2"/><circle cx="50" cy="90" r="2"/><circle cx="70" cy="90" r="2"/><circle cx="90" cy="90" r="2"/><circle cx="110" cy="90" r="2"/>
    <circle cx="10" cy="110" r="2"/><circle cx="30" cy="110" r="2"/><circle cx="50" cy="110" r="2"/><circle cx="70" cy="110" r="2"/><circle cx="90" cy="110" r="2"/><circle cx="110" cy="110" r="2"/>
  </g>
</svg>