<svg xmlns="http://www.w3.org/2000/svg" width="160" height="160" viewBox="0 0 160 160">
  <g fill="none" stroke="currentColor" stroke-opacity="0.15" stroke-width="1.5">
    <!-- center hex -->
    <polygon points="80,50 103,63 103,89 80,102 57,89 57,63"/>
    <!-- outer ring partial hexes -->
    <polygon points="80,5 103,18 103,44 80,57 57,44 57,18"/>
    <polygon points="125,55 148,68 148,94 125,107 102,94 102,68"/>
    <polygon points="125,105 148,118 148,144 125,157 102,144 102,118"/>
    <polygon points="35,105 58,118 58,144 35,157 12,144 12,118"/>
    <polygon points="35,55 58,68 58,94 35,107 12,94 12,68"/>
  </g>
</svg>